<?xml version="1.0" encoding="utf-8"?>
<!-- Generator: Adobe Illustrator 27.0.0, SVG Export Plug-In . SVG Version: 6.00 Build 0)  -->
<svg version="1.1" id="Layer_1" xmlns="http://www.w3.org/2000/svg" xmlns:xlink="http://www.w3.org/1999/xlink" x="0px" y="0px"
	 viewBox="0 0 48 48" style="enable-background:new 0 0 48 48;" xml:space="preserve">
<style type="text/css">
	.st0{fill:#9B00FF;stroke:#4CD335;stroke-miterlimit:10;}
</style>
<path class="st0" d="M10,42v-3h10.4v-5.2h-0.8c-2.7,0-5-0.9-6.8-2.8c-1.9-1.9-2.8-4.1-2.8-6.9c0-2,0.6-3.9,1.8-5.5
	c1.2-1.7,2.7-2.8,4.6-3.5c0.1-1.3,0.7-2.4,1.8-3.2s2.2-1.2,3.6-1.1l-1.1-2.9l2.1-0.7L22,5.2L25.3,4L26,5.8l2-0.7l5.7,14.8l-2.2,0.8
	l0.7,1.9L29,23.6l-0.7-1.9l-2.2,0.8l-1.2-3.4c-0.5,0.6-1.1,1-1.8,1.2s-1.4,0.4-2.2,0.3c-0.9,0-1.7-0.3-2.4-0.8
	c-0.7-0.5-1.3-1.1-1.8-1.9c-1.2,0.6-2.1,1.4-2.8,2.5c-0.7,1.1-1,2.3-1,3.6c0,1.8,0.6,3.4,1.9,4.7c1.3,1.3,2.9,1.9,4.7,1.9H37v3H25.4
	V39H38v3H10z M27.8,19.4l2.6-1l-4-10.3l-2.6,0.9L27.8,19.4z M21.3,18.2c0.7,0,1.3-0.2,1.8-0.7c0.5-0.5,0.7-1.1,0.7-1.8
	c0-0.7-0.2-1.3-0.7-1.8c-0.5-0.5-1.1-0.7-1.8-0.7c-0.7,0-1.3,0.2-1.8,0.7c-0.5,0.5-0.7,1.1-0.7,1.8c0,0.7,0.2,1.3,0.7,1.8
	C20,18,20.6,18.2,21.3,18.2z"/>
</svg>
