<svg width="3436" height="203" viewBox="0 0 3436 203" fill="none" xmlns="http://www.w3.org/2000/svg">
<path fill-rule="evenodd" clip-rule="evenodd" d="M0 203H878H1187H1347H2065H2249H2534H3436C3422.5 154.333 3367.6 54.5 3256 44.5C3181.33 37.8089 3137.89 48.1667 3096.92 57.9346C3061.35 66.4146 3027.65 74.4501 2977 70.5001C2924.89 66.4362 2889.69 50.1429 2855.34 34.2431C2817.85 16.8872 2781.36 0 2725 0C2672.64 0 2643.59 15.8016 2614.17 31.8093C2579.07 50.9081 2543.44 70.3003 2467 63.5C2461.25 62.9888 2454.27 62.0225 2446.38 60.9303C2434.27 59.2548 2420.02 57.2831 2404.81 56.2036C2389.38 50.2688 2372.47 46.1547 2354 44.5C2279.33 37.8089 2235.89 48.1667 2194.92 57.9346C2159.35 66.4146 2125.65 74.4501 2075 70.5001C2022.89 66.4362 1987.69 50.1429 1953.34 34.2431C1915.85 16.8872 1879.36 0 1823 0C1770.64 0 1741.59 15.8016 1712.18 31.8093C1677.07 50.9081 1641.44 70.3003 1565 63.5C1563.18 63.3377 1561.23 63.1294 1559.16 62.8858C1530.64 55.6762 1507.3 44.8717 1484.34 34.2431C1446.85 16.8872 1410.36 0 1354 0C1301.64 0 1272.59 15.8016 1243.18 31.8093C1208.07 50.9081 1172.44 70.3003 1096 63.5C1090.25 62.9888 1083.27 62.0225 1075.38 60.9303C1072.44 60.5243 1069.38 60.1009 1066.21 59.6771C1048.58 51.8736 1028.88 46.4605 1007 44.5C932.327 37.8089 888.886 48.1667 847.919 57.9346C812.354 66.4146 778.653 74.4501 728 70.5001C675.886 66.4362 640.688 50.1429 606.34 34.2431C568.846 16.8872 532.365 0 476 0C423.635 0 394.594 15.8016 365.175 31.8093C330.075 50.9081 294.435 70.3003 218 63.5C212.254 62.9888 205.27 62.0225 197.377 60.9303C130.926 51.7356 0 33.6195 0 203Z" fill="#308FFF"/>
</svg>
