<?xml version="1.0" encoding="utf-8"?>
<!-- Generator: Adobe Illustrator 27.0.0, SVG Export Plug-In . SVG Version: 6.00 Build 0)  -->
<svg version="1.1" id="Layer_1" xmlns="http://www.w3.org/2000/svg" xmlns:xlink="http://www.w3.org/1999/xlink" x="0px" y="0px"
	 viewBox="0 0 1200 1200" style="enable-background:new 0 0 1200 1200;" xml:space="preserve">
<style type="text/css">
	.st0{fill:#FFFFFF;}
</style>
<path class="st0" d="M693.14,493.97l-7.06-55.53c-0.46-3.61-3.54-6.32-7.18-6.32H671v-4.08c0-10.29-8.37-18.66-18.66-18.66
	s-18.66,8.37-18.66,18.66v4.08h-7.9c-3.63,0-6.72,2.72-7.18,6.32l-7.06,55.53c-0.26,2.06,0.38,4.14,1.75,5.7
	c1.37,1.56,3.35,2.45,5.43,2.45h67.25c2.08,0,4.06-0.89,5.43-2.45C692.77,498.1,693.41,496.03,693.14,493.97z M638.68,428.04
	c0-7.53,6.13-13.66,13.66-13.66S666,420.51,666,428.04v4.08h-27.32V428.04z M687.64,496.36c-0.43,0.49-1.03,0.76-1.68,0.76h-67.25
	c-0.65,0-1.25-0.27-1.68-0.76c-0.43-0.49-0.62-1.11-0.54-1.76l7.06-55.53c0.14-1.11,1.1-1.95,2.22-1.95h7.9v5.29
	c-1.22,0.81-2.02,2.19-2.02,3.76c0,2.49,2.03,4.52,4.52,4.52s4.52-2.03,4.52-4.52c0-1.57-0.81-2.95-2.02-3.76v-5.29H666v5.29
	c-1.22,0.81-2.02,2.19-2.02,3.76c0,2.49,2.03,4.52,4.52,4.52s4.52-2.03,4.52-4.52c0-1.57-0.81-2.95-2.02-3.76v-5.29h7.9
	c1.12,0,2.08,0.84,2.22,1.95l7.06,55.53C688.27,495.24,688.07,495.87,687.64,496.36z"/>
</svg>
