<?xml version="1.0" encoding="utf-8"?>
<!-- Generator: Adobe Illustrator 27.0.0, SVG Export Plug-In . SVG Version: 6.00 Build 0)  -->
<svg version="1.1" id="Layer_1" xmlns="http://www.w3.org/2000/svg" xmlns:xlink="http://www.w3.org/1999/xlink" x="0px" y="0px"
	 viewBox="0 0 1200 1200" style="enable-background:new 0 0 1200 1200;" xml:space="preserve">
<style type="text/css">
	.st0{fill:#FFFFFF;}
</style>
<path class="st0" d="M406.8,1321.38c-0.42,0-0.85-0.11-1.23-0.32c-0.82-0.46-20.1-11.47-31.14-26.65
	c-12.48-16.94-9.46-29.13-6.55-34.89c3.75-7.42,11.31-12.4,18.81-12.4c10.21,0,16.72,5.49,20.1,10.41
	c3.38-4.92,9.89-10.41,20.1-10.41c7.5,0,15.06,4.98,18.81,12.4c2.91,5.76,5.93,17.95-6.55,34.9
	c-11.04,15.17-30.32,26.17-31.13,26.64C407.65,1321.27,407.22,1321.38,406.8,1321.38z M386.69,1252.11c-4.56,0-11,3.02-14.35,9.66
	c-4.13,8.17-1.96,18.72,6.12,29.68c8.86,12.18,23.95,21.86,28.34,24.52c4.39-2.66,19.47-12.33,28.33-24.51
	c8.09-10.98,10.26-21.52,6.13-29.7c-3.35-6.63-9.79-9.66-14.35-9.66c-13.4,0-17.58,11.1-17.75,11.57c-0.36,0.99-1.3,1.65-2.35,1.65
	c0,0-0.01,0-0.01,0c-1.06,0-2-0.67-2.35-1.66C404.27,1263.21,400.1,1252.11,386.69,1252.11z"/>
</svg>
