<?xml version="1.0" encoding="utf-8"?>
<!-- Generator: Adobe Illustrator 27.0.0, SVG Export Plug-In . SVG Version: 6.00 Build 0)  -->
<svg version="1.1" id="Layer_1" xmlns="http://www.w3.org/2000/svg" xmlns:xlink="http://www.w3.org/1999/xlink" x="0px" y="0px"
	 viewBox="0 0 1200 1200" style="enable-background:new 0 0 1200 1200;" xml:space="preserve">
<style type="text/css">
	.st0{fill:#FFFFFF;}
</style>
<path class="st0" d="M866.52,841.43l-22.08-22.08c4.8-5.61,7.72-12.89,7.72-20.84c0-17.7-14.4-32.09-32.09-32.09
	s-32.09,14.4-32.09,32.09s14.4,32.09,32.09,32.09c7.95,0,15.23-2.91,20.84-7.72l22.08,22.08c0.49,0.49,1.13,0.73,1.77,0.73
	s1.28-0.24,1.77-0.73C867.49,843.99,867.49,842.41,866.52,841.43z M820.06,825.6c-14.94,0-27.09-12.15-27.09-27.09
	c0-14.94,12.15-27.09,27.09-27.09s27.09,12.15,27.09,27.09C847.16,813.45,835,825.6,820.06,825.6z"/>
</svg>
