<?xml version="1.0" encoding="utf-8"?>
<!-- Generator: Adobe Illustrator 27.0.0, SVG Export Plug-In . SVG Version: 6.00 Build 0)  -->
<svg version="1.1" id="Layer_1" xmlns="http://www.w3.org/2000/svg" xmlns:xlink="http://www.w3.org/1999/xlink" x="0px" y="0px"
	 viewBox="0 0 1200 1200" style="enable-background:new 0 0 1200 1200;" xml:space="preserve">
<style type="text/css">
	.st0{fill:#FFFFFF;}
</style>
<g>
	<path class="st0" d="M610.2,593.96c-6.47,0-11.73-5.26-11.73-11.73c0-6.46,5.26-11.72,11.73-11.72s11.73,5.26,11.73,11.72
		C621.93,588.7,616.67,593.96,610.2,593.96z M610.2,575.51c-3.71,0-6.73,3.02-6.73,6.72c0,3.71,3.02,6.73,6.73,6.73
		s6.73-3.02,6.73-6.73C616.93,578.53,613.91,575.51,610.2,575.51z"/>
	<path class="st0" d="M610.2,636.3c-2.49,0-4.71-1.29-5.95-3.45l-19.32-33.69c-2.48-4.3-4.81-9.21-5.03-15.84
		c-0.52-15.03,9.69-28,24.27-30.82c9.08-1.76,18.31,0.55,25.32,6.34c7.02,5.79,11.04,14.32,11.04,23.4c0,7.16-2.43,12.36-5.06,16.92
		l-19.32,33.69C614.91,635.01,612.69,636.3,610.2,636.3z M610.14,556.92c-1.67,0-3.35,0.16-5.02,0.48
		c-12.15,2.35-20.65,13.18-20.22,25.74c0.15,4.48,1.42,8.4,4.37,13.52l19.32,33.69c0.48,0.84,1.29,0.94,1.61,0.94
		s1.13-0.09,1.61-0.94c0,0,0,0,0,0l19.32-33.69c2.64-4.58,4.39-8.78,4.39-14.43c0-7.59-3.36-14.71-9.22-19.54
		C621.74,558.92,616.04,556.92,610.14,556.92z"/>
</g>
</svg>
